<svg xmlns="http://www.w3.org/2000/svg" viewBox="0 0 540 340">
  <defs>
    <linearGradient id="md-bg" x1="0" y1="0" x2="0" y2="1">
      <stop offset="0%" stop-color="#eff6ff"/>
      <stop offset="100%" stop-color="#dbeafe"/>
    </linearGradient>
    <linearGradient id="md-avatar" x1="0" y1="0" x2="1" y2="1">
      <stop offset="0%" stop-color="#3b82f6"/>
      <stop offset="100%" stop-color="#1d4ed8"/>
    </linearGradient>
    <filter id="md-shadow">
      <feDropShadow dx="0" dy="1" stdDeviation="3" flood-color="#0f172a" flood-opacity="0.07"/>
    </filter>
  </defs>

  <!-- Background -->
  <rect width="540" height="340" rx="20" fill="url(#md-bg)"/>

  <!-- Decorative blobs -->
  <circle cx="500" cy="40" r="65" fill="#2563eb" opacity="0.06"/>
  <circle cx="50" cy="310" r="50" fill="#3b82f6" opacity="0.07"/>

  <!-- ── Doctor header ── -->
  <rect x="20" y="18" width="500" height="52" rx="12" fill="white" filter="url(#md-shadow)"/>
  <circle cx="52" cy="44" r="18" fill="url(#md-avatar)"/>
  <text x="52" y="49" text-anchor="middle" font-family="system-ui,sans-serif" font-size="12" font-weight="700" fill="white">JC</text>
  <text x="80" y="38" font-family="system-ui,sans-serif" font-size="13" font-weight="700" fill="#0f172a">Dr. João Costa</text>
  <text x="80" y="54" font-family="system-ui,sans-serif" font-size="10" fill="#64748b">Cardiologista · CRM 12 840</text>
  <!-- Teleconsulta badge -->
  <rect x="388" y="28" width="120" height="28" rx="14" fill="#dbeafe"/>
  <circle cx="403" cy="42" r="5" fill="#22c55e"/>
  <text x="412" y="46" font-family="system-ui,sans-serif" font-size="10" font-weight="600" fill="#1d4ed8">Disponível agora</text>

  <!-- ── Stats row ── -->
  <rect x="20" y="82" width="112" height="62" rx="10" fill="white" filter="url(#md-shadow)"/>
  <text x="34" y="102" font-family="system-ui,sans-serif" font-size="9" fill="#64748b">Hoje</text>
  <text x="34" y="122" font-family="system-ui,sans-serif" font-size="24" font-weight="800" fill="#1d4ed8">12</text>
  <text x="62" y="122" font-family="system-ui,sans-serif" font-size="10" fill="#64748b">consultas</text>
  <text x="34" y="138" font-family="system-ui,sans-serif" font-size="9" fill="#22c55e" font-weight="600">↑ 3 vs ontem</text>

  <rect x="144" y="82" width="112" height="62" rx="10" fill="white" filter="url(#md-shadow)"/>
  <text x="158" y="102" font-family="system-ui,sans-serif" font-size="9" fill="#64748b">Receitas emitidas</text>
  <text x="158" y="122" font-family="system-ui,sans-serif" font-size="24" font-weight="800" fill="#1d4ed8">28</text>
  <text x="186" y="122" font-family="system-ui,sans-serif" font-size="10" fill="#64748b">este mês</text>

  <rect x="268" y="82" width="112" height="62" rx="10" fill="white" filter="url(#md-shadow)"/>
  <text x="282" y="102" font-family="system-ui,sans-serif" font-size="9" fill="#64748b">Avaliação</text>
  <text x="282" y="122" font-family="system-ui,sans-serif" font-size="22" font-weight="800" fill="#1d4ed8">4.9</text>
  <text x="308" y="118" font-family="system-ui,sans-serif" font-size="14" fill="#f59e0b">★</text>
  <text x="282" y="137" font-family="system-ui,sans-serif" font-size="9" fill="#64748b">147 avaliações</text>

  <rect x="392" y="82" width="128" height="62" rx="10" fill="#1d4ed8" filter="url(#md-shadow)"/>
  <text x="456" y="102" text-anchor="middle" font-family="system-ui,sans-serif" font-size="9" fill="rgba(255,255,255,0.8)">Receita hoje</text>
  <text x="456" y="124" text-anchor="middle" font-family="system-ui,sans-serif" font-size="20" font-weight="800" fill="white">94 600</text>
  <text x="456" y="137" text-anchor="middle" font-family="system-ui,sans-serif" font-size="9" fill="rgba(255,255,255,0.7)">Kz</text>

  <!-- ── Patient queue ── -->
  <text x="20" y="165" font-family="system-ui,sans-serif" font-size="11" font-weight="700" fill="#1d4ed8">Fila de espera — Hoje</text>

  <!-- Patient 1 - in progress -->
  <rect x="20" y="173" width="310" height="38" rx="9" fill="white" filter="url(#md-shadow)" stroke="#3b82f6" stroke-width="1"/>
  <circle cx="40" cy="192" r="10" fill="#3b82f6" opacity="0.15"/>
  <text x="40" y="196" text-anchor="middle" font-family="system-ui,sans-serif" font-size="9" fill="#1d4ed8" font-weight="700">EM</text>
  <text x="58" y="188" font-family="system-ui,sans-serif" font-size="11" font-weight="600" fill="#0f172a">Eduardo Matos</text>
  <text x="58" y="201" font-family="system-ui,sans-serif" font-size="9" fill="#64748b">Dor torácica · 14:30</text>
  <rect x="240" y="181" width="76" height="20" rx="10" fill="#dcfce7"/>
  <text x="278" y="195" text-anchor="middle" font-family="system-ui,sans-serif" font-size="9" font-weight="600" fill="#16a34a">● Em consulta</text>

  <!-- Patient 2 -->
  <rect x="20" y="218" width="310" height="38" rx="9" fill="white" filter="url(#md-shadow)"/>
  <circle cx="40" cy="237" r="10" fill="#fef3c7"/>
  <text x="40" y="241" text-anchor="middle" font-family="system-ui,sans-serif" font-size="9" fill="#92400e" font-weight="700">ML</text>
  <text x="58" y="233" font-family="system-ui,sans-serif" font-size="11" font-weight="600" fill="#0f172a">Maria Lima</text>
  <text x="58" y="246" font-family="system-ui,sans-serif" font-size="9" fill="#64748b">Controlo HTA · 15:00</text>
  <rect x="248" y="226" width="68" height="20" rx="10" fill="#fef9c3"/>
  <text x="282" y="240" text-anchor="middle" font-family="system-ui,sans-serif" font-size="9" font-weight="600" fill="#854d0e">Aguarda</text>

  <!-- Patient 3 -->
  <rect x="20" y="263" width="310" height="38" rx="9" fill="white" filter="url(#md-shadow)"/>
  <circle cx="40" cy="282" r="10" fill="#f3e8ff"/>
  <text x="40" y="286" text-anchor="middle" font-family="system-ui,sans-serif" font-size="9" fill="#6d28d9" font-weight="700">CS</text>
  <text x="58" y="278" font-family="system-ui,sans-serif" font-size="11" font-weight="600" fill="#0f172a">Carlos Santos</text>
  <text x="58" y="291" font-family="system-ui,sans-serif" font-size="9" fill="#64748b">ECG + revisão · 15:30</text>
  <rect x="248" y="271" width="68" height="20" rx="10" fill="#e0e7ff"/>
  <text x="282" y="285" text-anchor="middle" font-family="system-ui,sans-serif" font-size="9" font-weight="600" fill="#3730a3">Agendado</text>

  <!-- ── Agenda mini-chart right side ── -->
  <rect x="344" y="165" width="176" height="136" rx="12" fill="white" filter="url(#md-shadow)"/>
  <text x="360" y="183" font-family="system-ui,sans-serif" font-size="10" font-weight="700" fill="#0f172a">Agenda — Maio</text>
  <!-- Mini calendar grid -->
  <g font-family="system-ui,sans-serif" font-size="9" fill="#94a3b8" text-anchor="middle">
    <text x="367" y="198">S</text><text x="386" y="198">T</text><text x="405" y="198">Q</text>
    <text x="424" y="198">Q</text><text x="443" y="198">S</text><text x="462" y="198">S</text><text x="481" y="198">D</text>
  </g>
  <!-- Day numbers row 1 -->
  <g font-family="system-ui,sans-serif" font-size="9" text-anchor="middle" fill="#475569">
    <text x="367" y="213">1</text><text x="386" y="213">2</text><text x="405" y="213">3</text>
    <text x="424" y="213">4</text><text x="443" y="213">5</text><text x="462" y="213">6</text><text x="481" y="213">7</text>
  </g>
  <!-- Row 2 -->
  <g font-family="system-ui,sans-serif" font-size="9" text-anchor="middle" fill="#475569">
    <text x="367" y="228">8</text>
    <!-- Today: 8 -->
    <rect x="377" y="219" width="18" height="18" rx="9" fill="#1d4ed8"/>
    <text x="386" y="231" fill="white" font-weight="700">9</text>
    <text x="405" y="228">10</text><text x="424" y="228">11</text><text x="443" y="228">12</text>
    <text x="462" y="228">13</text><text x="481" y="228">14</text>
  </g>
  <g font-family="system-ui,sans-serif" font-size="9" text-anchor="middle" fill="#475569">
    <text x="367" y="243">15</text><text x="386" y="243">16</text><text x="405" y="243">17</text>
    <text x="424" y="243">18</text><text x="443" y="243">19</text><text x="462" y="243">20</text>
    <text x="481" y="243">21</text>
  </g>
  <!-- Busy indicators -->
  <circle cx="405" cy="250" r="2.5" fill="#3b82f6"/>
  <circle cx="424" cy="250" r="2.5" fill="#3b82f6"/>
  <circle cx="462" cy="250" r="2.5" fill="#f59e0b"/>

  <!-- Revenue trend line -->
  <text x="360" y="270" font-family="system-ui,sans-serif" font-size="9" fill="#64748b">Receita semanal</text>
  <polyline points="360,289 375,285 390,282 405,278 420,281 435,273 450,270 465,268 480,265 495,262"
            stroke="#3b82f6" stroke-width="2" stroke-linecap="round" stroke-linejoin="round" fill="none"/>
  <circle cx="495" cy="262" r="3" fill="#3b82f6"/>
  <text x="360" y="304" font-family="system-ui,sans-serif" font-size="11" font-weight="800" fill="#1d4ed8">328 500 Kz</text>
</svg>
